<?xml version="1.0" encoding="utf-8"?>
<!-- Generator: Adobe Illustrator 25.2.3, SVG Export Plug-In . SVG Version: 6.00 Build 0)  -->
<svg version="1.1" id="Layer_1" xmlns="http://www.w3.org/2000/svg" xmlns:xlink="http://www.w3.org/1999/xlink" x="0px" y="0px"
	 viewBox="0 0 220.1 41.8" style="enable-background:new 0 0 220.1 41.8;" xml:space="preserve">
<style type="text/css">
	.st0{fill:#107C10;}
</style>
<path class="st0" d="M20.5,17.6C20.6,17.6,20.6,17.7,20.5,17.6c5.6,4.2,15,14.6,12.1,17.5c-3.2,2.8-7.5,4.5-12.1,4.5
	s-8.9-1.7-12.1-4.5C5.6,32.2,15,21.8,20.5,17.6C20.5,17.6,20.5,17.6,20.5,17.6z M30.1,5.6c-2.8-1.7-5.9-2.7-9.6-2.7s-6.8,1-9.6,2.7
	c0,0-0.1,0.1,0,0.1c0,0,0.1,0,0.1,0c3.6-0.8,9,2.3,9.5,2.6c0,0,0,0,0,0c0,0,0,0,0,0c0.5-0.3,5.9-3.4,9.5-2.6
	C30.1,5.7,30.1,5.7,30.1,5.6C30.2,5.6,30.1,5.6,30.1,5.6z M7.7,8.2C7.6,8.2,7.6,8.2,7.7,8.2c-3.4,3.4-5.5,8-5.5,13.1
	c0,4.2,1.4,8,3.8,11.1c0,0,0.1,0.1,0.1,0c0,0,0-0.1,0-0.1c-1.4-4.3,5.8-14.9,9.5-19.3c0,0,0,0,0-0.1c0,0,0,0,0-0.1
	C9.9,7.4,8,8,7.7,8.2z M25.6,13C25.6,13,25.6,13,25.6,13c0,0.1,0,0.1,0,0.1C29.3,17.5,36.4,28,35,32.3c0,0,0,0.1,0,0.1
	c0,0,0.1,0,0.1,0c2.4-3.1,3.8-6.9,3.8-11.1c0-5.1-2.1-9.7-5.4-13c0,0-0.1-0.1-0.1-0.1C33.1,8,31.2,7.4,25.6,13z M83.1,10.5h-3.8
	l-8.6,22.1h3.5l2.1-5.7h9.8l2.1,5.7h3.5L83.1,10.5z M77.4,23.9l3.8-10.1L85,23.9H77.4z M68.9,21V25v7.6l0,0h-3.2v-2.9
	c-0.8,1.1-1.8,2-3,2.5c-1.2,0.6-2.6,0.9-4.2,0.9c-1.6,0-3-0.3-4.3-0.8C53,31.8,51.9,31,51,29.9c-1-1.1-1.7-2.3-2.2-3.7
	c-0.5-1.4-0.7-3-0.7-4.7c0-1.7,0.2-3.3,0.7-4.7c0.5-1.4,1.2-2.6,2.2-3.7c1-1.1,2.1-1.8,3.4-2.4c1.3-0.5,2.8-0.8,4.4-0.8
	c2.7,0,5,0.7,6.7,2.1c1.8,1.4,2.8,3.3,3.2,5.7l0,0h-3.5l0,0c-0.3-1.5-1-2.7-2.2-3.5S60.4,13,58.8,13c-2.2,0-4,0.8-5.2,2.3
	c-1.3,1.5-2,3.6-2,6.2s0.7,4.7,2,6.2c1.3,1.5,3.1,2.3,5.3,2.3c1.9,0,3.5-0.6,4.8-1.8c1.3-1.2,2-2.7,2.1-4.5h-6.5v-2.9L68.9,21
	L68.9,21z M123,13.5v6.4h11v2.8h-11v6.8h12.4v3h-15.8V10.5h15.8v3H123z M116.2,10.5v22.1H113V15.1c-0.4,1.2-1,2.8-1.7,4.5l-5,13
	h-2.8l0,0l-5-13c-0.6-1.6-1.2-3.1-1.6-4.5v17.5h-3.2V10.5h4.6l4.5,11.7c0.9,2.4,1.7,4.4,2.2,6.1c0.7-2,1.4-4.2,2.3-6.4l4.4-11.4
	H116.2z M158.8,12.4c-1.3-1.2-3.2-1.9-5.6-1.9h-9.4v22.1h3.4v-8.1h6c2.4,0,4.3-0.6,5.6-1.9c1.3-1.2,2-3,2-5.1
	C160.8,15.4,160.1,13.6,158.8,12.4z M147.2,13.5h6c1.4,0,2.4,0.3,3.1,1c0.7,0.7,1.1,1.7,1.1,3s-0.4,2.3-1.1,3c-0.7,0.7-1.8,1-3.1,1
	h-6V13.5z M198.2,26.5c0,2-0.8,3.7-2.3,4.9c-1.5,1.2-3.6,1.8-6.3,1.8c-2.9,0-5.2-0.7-6.8-2c-1.6-1.3-2.5-3.3-2.5-5.8v0h3.4v0
	c0,1.6,0.6,2.9,1.5,3.7c1,0.8,2.5,1.2,4.4,1.2c1.6,0,2.9-0.3,3.7-0.9c0.9-0.6,1.3-1.5,1.3-2.7c0-1-0.4-1.7-1.1-2.2
	c-0.7-0.5-2-1-3.9-1.4l-1.9-0.4c-2.3-0.4-4-1.2-5.1-2.2c-1.2-1-1.7-2.5-1.7-4.3s0.7-3.3,2.1-4.4s3.3-1.6,5.7-1.6
	c2.9,0,5.1,0.6,6.5,1.9c1.5,1.2,2.2,3,2.3,5.1v0h-3.3v0c-0.1-1.4-0.6-2.5-1.4-3.1c-0.8-0.7-2.2-1-4-1c-1.4,0-2.5,0.3-3.3,0.8
	c-0.7,0.5-1.1,1.3-1.1,2.3c0,1,0.3,1.8,1,2.3c0.7,0.6,1.9,1,3.8,1.4l1.9,0.4c2.5,0.5,4.3,1.3,5.4,2.3
	C197.6,23.4,198.2,24.8,198.2,26.5z M217.9,26.5c0,2-0.8,3.7-2.3,4.9c-1.5,1.2-3.6,1.8-6.3,1.8c-2.9,0-5.2-0.7-6.8-2
	c-1.6-1.3-2.5-3.3-2.5-5.8v0h3.4v0c0,1.6,0.6,2.9,1.5,3.7c1,0.8,2.5,1.2,4.4,1.2c1.6,0,2.9-0.3,3.7-0.9c0.9-0.6,1.3-1.5,1.3-2.7
	c0-1-0.4-1.7-1.1-2.2c-0.7-0.5-2-1-3.9-1.4l-1.9-0.4c-2.3-0.4-4-1.2-5.1-2.2s-1.7-2.5-1.7-4.3s0.7-3.3,2.1-4.4
	c1.4-1.1,3.3-1.6,5.7-1.6c2.9,0,5.1,0.6,6.5,1.9c1.5,1.2,2.2,3,2.3,5.1v0h-3.3v0c-0.1-1.4-0.6-2.5-1.4-3.1c-0.8-0.7-2.2-1-4-1
	c-1.4,0-2.5,0.3-3.3,0.8c-0.7,0.5-1.1,1.3-1.1,2.3c0,1,0.3,1.8,1,2.3c0.7,0.6,1.9,1,3.8,1.4l1.9,0.4c2.5,0.5,4.3,1.3,5.4,2.3
	C217.3,23.4,217.9,24.8,217.9,26.5z M170.9,10.5h-3.8l-8.6,22.1h3.5l2.1-5.7h9.8l2.1,5.7h3.5L170.9,10.5z M165.2,23.9l3.8-10.1
	l3.8,10.1H165.2z"/>
</svg>
